<?xml version="1.0" encoding="utf-8"?>
<!-- Generator: Adobe Illustrator 22.0.0, SVG Export Plug-In . SVG Version: 6.00 Build 0)  -->
<svg version="1.1" id="Layer_1" xmlns="http://www.w3.org/2000/svg" xmlns:xlink="http://www.w3.org/1999/xlink" x="0px" y="0px"
	 viewBox="0 0 209.1 78.4" style="enable-background:new 0 0 209.1 78.4;" xml:space="preserve">
<style type="text/css">
	.st0{fill:#C6CCE7;}
	.st1{fill:#A4C9A4;}
	.st2{fill:#089147;}
	.st3{fill:#2E378E;}
	.st4{fill:#FAC9B9;}
	.st5{fill:#EC1C27;}
	.st6{fill:#FFFFFF;}
	.st7{fill:none;}
</style>
<path class="st0" d="M14.9,45.6L14.9,45.6C14.9,45.6,14.9,45.7,14.9,45.6L14.9,45.6z"/>
<path class="st1" d="M22.2,64.9c1.1-0.2,2.5-0.6,4-1.2c0.3-0.1,0.7-0.3,1.1-0.5c-0.6,0.2-1.3,0.1-1.9-0.3c-0.4-0.3-0.8-0.6-1-1.1
	c-0.3-0.6-0.3-1.3-0.3-2c0,0-0.2-13.7-0.2-13.7c0-1.6-0.8-3.2-2.3-4c-1-0.6-17.4-0.6-18.2-0.3c-1.1,0.3-2.1,1-2.7,2.1
	C0.2,44.6,0,45.3,0,46c0,0.5,0,0.9,0.1,1.4c0,0,0.4,3.1,2.6,7.5c0.7,1.6,1.5,3.1,2.4,4.6c0.3,0.3,0.5,0.5,0.8,0.8
	c1,0.9,2.1,1.7,3.4,2.5c0.2,0.1,0.4,0.2,0.6,0.3C13.8,65.2,16.5,65.7,22.2,64.9"/>
<path class="st2" d="M52.1,76C52.2,76,52.2,76,52.1,76c0.7-0.3,1.2-0.7,1.6-1.2c0.5-0.6,0.7-1.4,0.8-2.1c0.1-0.8-0.1-1.5-0.5-2.3
	c-0.3-0.7-0.7-1.3-1.1-2c-0.5-0.9-1-1.8-1.5-2.6c-0.5-0.9-1.1-1.9-1.6-2.8c-0.5-0.9-1-1.7-1.5-2.6c-0.4-0.7-0.8-1.3-1.1-2
	c-0.2-0.3-0.4-0.6-0.5-0.9c0,0,0,0,0,0c-0.4-0.6-0.9-1.2-1.6-1.6c-1.2-0.7-2.5-0.8-3.7-0.4l0,0c-0.7,0.2-9.2,5.6-14.1,7.8
	c-0.4,0.2-0.8,0.3-1.1,0.5c-1.5,0.6-2.9,1-4,1.2c-5.7,0.8-8.4,0.3-12.3-1.9c-0.3-0.1-0.5-0.3-0.8-0.5c-1.2-0.7-2.4-1.6-3.3-2.4
	c-0.3-0.3-0.6-0.5-0.8-0.8c3.3,5.5,8,10.3,14,13.8C29.5,79.2,41.6,79.9,52.1,76"/>
<path class="st0" d="M69.2,40.8c-0.7-0.9-1.8-1.9-3-2.9c-0.3-0.2-0.6-0.5-1-0.7c0.4,0.5,0.7,1.1,0.7,1.8c0,0.5-0.1,1-0.4,1.5
	c-0.4,0.6-1,0.9-1.6,1.2c0,0-11.8,7-11.8,7c-1.4,0.8-2.3,2.3-2.3,4c0,1.1,8.2,15.4,8.8,15.9c0.8,0.8,1.9,1.3,3.2,1.3
	c0.7,0,1.4-0.2,2-0.5c0.4-0.2,0.8-0.5,1.1-0.8c0,0,2.5-1.9,5.2-6c1-1.4,2-2.9,2.8-4.4c0.1-0.4,0.2-0.7,0.2-1.1
	c0.2-1.3,0.4-2.7,0.5-4.1c0-0.2,0-0.5,0-0.7C73.7,47.9,72.7,45.3,69.2,40.8"/>
<path class="st3" d="M63.8,9.3C63.8,9.3,63.8,9.3,63.8,9.3c-0.6-0.5-1.2-0.7-1.9-0.8c-0.8-0.1-1.5,0.1-2.2,0.4
	C59,9.3,58.5,9.8,58,10.5c-0.4,0.6-0.8,1.3-1.2,1.9c-0.5,0.9-1,1.7-1.5,2.6c-0.6,0.9-1.1,1.9-1.7,2.8c-0.5,0.9-1,1.7-1.5,2.6
	c-0.4,0.7-0.8,1.3-1.1,2c-0.2,0.3-0.4,0.6-0.5,0.9c0,0,0,0,0,0c-0.4,0.7-0.6,1.4-0.6,2.2c0,1.3,0.6,2.6,1.5,3.4l0,0
	c0.5,0.5,9.4,5.1,13.8,8.3c0.4,0.3,0.7,0.5,1,0.7c1.3,1,2.3,2,3,2.9c3.5,4.6,4.5,7.2,4.5,11.6c0,0.3,0,0.6,0,0.9
	c0,1.4-0.2,2.8-0.5,4.1c-0.1,0.4-0.2,0.7-0.2,1.1c3.1-5.6,4.9-12.1,4.9-19C78,27.3,72.5,16.5,63.8,9.3"/>
<path class="st4" d="M24.8,12.1c-0.4,1.1-0.8,2.5-1,4c-0.1,0.4-0.1,0.8-0.1,1.2c0.2-0.6,0.6-1.2,1.2-1.5c0.4-0.3,1-0.4,1.5-0.4
	c0.7,0,1.3,0.4,1.9,0.7c0,0,12,6.7,12,6.7c1.4,0.8,3.2,0.9,4.7,0c1-0.6,9.2-14.8,9.4-15.6c0.3-1.1,0.2-2.3-0.5-3.4
	c-0.4-0.6-0.9-1.1-1.4-1.5c-0.4-0.3-0.8-0.4-1.3-0.6c0,0-2.9-1.2-7.8-1.5c-1.7-0.2-3.5-0.3-5.2-0.2c-0.3,0.1-0.7,0.2-1.1,0.3
	c-1.2,0.4-2.5,1-3.8,1.7c-0.2,0.1-0.4,0.2-0.6,0.3C28.8,4.7,27,6.8,24.8,12.1"/>
<path class="st5" d="M0.2,32.5C0.2,32.6,0.2,32.6,0.2,32.5c-0.1,0.7,0,1.4,0.3,2c0.3,0.7,0.8,1.3,1.4,1.7c0.7,0.5,1.4,0.7,2.2,0.7
	c0.8,0,1.5,0.1,2.3,0.1c1,0,2,0,3,0c1.1,0,2.2,0,3.3,0c1,0,2,0,3,0c0.8,0,1.5,0,2.3,0c0.4,0,0.7,0,1.1,0h0c0.7,0,1.5-0.2,2.2-0.6
	c1.2-0.7,1.9-1.8,2.2-3c0,0,0,0,0,0c0.1-0.7-0.3-10.7,0.3-16.1c0-0.4,0.1-0.8,0.1-1.2c0.2-1.6,0.6-3,1-4c2.2-5.3,4-7.4,7.8-9.7
	c0.3-0.1,0.5-0.3,0.8-0.4c1.3-0.7,2.6-1.2,3.8-1.7c0.4-0.1,0.7-0.2,1.1-0.3c-6.5,0.1-13,1.8-19,5.2C8.8,11.3,2.1,21.5,0.2,32.5"/>
<path class="st6" d="M206.2,19.5c-1.4,0-2.6,1.1-2.6,2.6s1.1,2.6,2.6,2.6c1.4,0,2.6-1.1,2.6-2.6S207.6,19.5,206.2,19.5 M206.2,24.9
	c-1.6,0-2.9-1.3-2.9-2.9s1.3-2.9,2.9-2.9c1.6,0,2.9,1.3,2.9,2.9S207.8,24.9,206.2,24.9"/>
<path class="st6" d="M206.1,21.1h-0.5v0.7h0.5c0.1,0,0.2,0,0.3,0c0.1,0,0.2-0.1,0.2-0.1c0-0.1,0.1-0.1,0.1-0.2c0-0.1,0-0.1-0.1-0.2
	c0-0.1-0.1-0.1-0.2-0.1C206.4,21.1,206.3,21.1,206.1,21.1 M205.8,22.2h-0.2V23c0,0.1,0,0.2-0.1,0.2c0,0.1-0.1,0.1-0.2,0.1
	c-0.1,0-0.2,0-0.2-0.1c0-0.1-0.1-0.1-0.1-0.2v-2c0-0.1,0-0.2,0.1-0.3c0.1-0.1,0.1-0.1,0.3-0.1h0.9c0.1,0,0.2,0,0.3,0
	c0.1,0,0.2,0,0.2,0.1c0.1,0,0.2,0.1,0.2,0.1c0.1,0.1,0.1,0.1,0.1,0.2c0,0.1,0.1,0.2,0.1,0.3c0,0.2-0.1,0.4-0.2,0.5
	c-0.1,0.1-0.3,0.2-0.5,0.2c0.1,0.1,0.2,0.1,0.3,0.2c0.1,0.1,0.2,0.2,0.2,0.3s0.1,0.2,0.2,0.3c0,0.1,0.1,0.1,0.1,0.2c0,0,0,0.1,0,0.1
	c0,0-0.1,0.1-0.1,0.1c0,0-0.1,0-0.1,0c-0.1,0-0.1,0-0.2,0s-0.1-0.1-0.1-0.1c0,0-0.1-0.1-0.1-0.2l-0.2-0.4c-0.1-0.1-0.1-0.2-0.2-0.3
	c-0.1-0.1-0.1-0.1-0.2-0.1C206,22.2,205.9,22.2,205.8,22.2"/>
<path class="st6" d="M113.2,57.4v-1.7l-1.3-2c-0.1-0.2-0.2-0.3-0.2-0.4c0-0.1-0.1-0.2-0.1-0.3c0-0.1,0-0.2,0.1-0.3
	c0.1-0.1,0.2-0.1,0.3-0.1c0.1,0,0.3,0,0.3,0.1c0.1,0.1,0.2,0.2,0.3,0.5l1,1.6l1-1.6c0.1-0.1,0.1-0.2,0.2-0.2c0-0.1,0.1-0.1,0.1-0.2
	c0-0.1,0.1-0.1,0.2-0.1c0.1,0,0.1,0,0.2,0c0.1,0,0.2,0,0.3,0.1c0.1,0.1,0.1,0.2,0.1,0.3c0,0.1,0,0.2-0.1,0.3c0,0.1-0.1,0.2-0.2,0.4
	l-1.3,2v1.7c0,0.2-0.1,0.4-0.2,0.5c-0.1,0.1-0.2,0.2-0.4,0.2c-0.2,0-0.3-0.1-0.4-0.2C113.3,57.7,113.2,57.6,113.2,57.4"/>
<path class="st6" d="M118.7,56c0-0.4-0.1-0.7-0.3-0.9c-0.2-0.2-0.4-0.3-0.7-0.3c-0.2,0-0.4,0.1-0.5,0.1c-0.1,0.1-0.3,0.2-0.3,0.4
	c-0.1,0.2-0.1,0.4-0.1,0.7c0,0.3,0,0.5,0.1,0.7c0.1,0.2,0.2,0.3,0.3,0.4c0.1,0.1,0.3,0.2,0.5,0.2c0.3,0,0.5-0.1,0.7-0.3
	C118.6,56.7,118.7,56.4,118.7,56 M119.7,56c0,0.3,0,0.6-0.1,0.8c-0.1,0.2-0.2,0.5-0.4,0.6c-0.2,0.2-0.4,0.3-0.6,0.4
	c-0.2,0.1-0.5,0.1-0.8,0.1c-0.3,0-0.6,0-0.8-0.1c-0.2-0.1-0.4-0.2-0.6-0.4c-0.2-0.2-0.3-0.4-0.4-0.6c-0.1-0.2-0.1-0.5-0.1-0.8
	c0-0.3,0-0.6,0.1-0.8s0.2-0.5,0.4-0.6c0.2-0.2,0.4-0.3,0.6-0.4c0.2-0.1,0.5-0.1,0.8-0.1c0.3,0,0.6,0,0.8,0.1
	c0.2,0.1,0.4,0.2,0.6,0.4c0.2,0.2,0.3,0.4,0.4,0.6C119.6,55.5,119.7,55.7,119.7,56"/>
<path class="st6" d="M122.8,57.5v-0.1c-0.1,0.1-0.2,0.3-0.4,0.4c-0.1,0.1-0.3,0.2-0.4,0.2c-0.2,0-0.3,0.1-0.5,0.1
	c-0.2,0-0.5,0-0.6-0.1c-0.2-0.1-0.3-0.2-0.4-0.4c-0.1-0.2-0.2-0.5-0.2-0.9v-1.9c0-0.2,0-0.3,0.1-0.4c0.1-0.1,0.2-0.1,0.4-0.1
	c0.1,0,0.3,0,0.4,0.1c0.1,0.1,0.1,0.2,0.1,0.4v1.6c0,0.2,0,0.4,0.1,0.6c0,0.2,0.1,0.3,0.2,0.4c0.1,0.1,0.2,0.1,0.4,0.1
	c0.2,0,0.3,0,0.5-0.1c0.1-0.1,0.3-0.2,0.3-0.4c0.1-0.1,0.1-0.4,0.1-0.9v-1.2c0-0.2,0-0.3,0.1-0.4c0.1-0.1,0.2-0.1,0.4-0.1
	c0.1,0,0.3,0,0.4,0.1c0.1,0.1,0.1,0.2,0.1,0.4v2.8c0,0.2,0,0.3-0.1,0.4c-0.1,0.1-0.2,0.1-0.3,0.1s-0.2,0-0.3-0.1
	C122.9,57.8,122.8,57.6,122.8,57.5"/>
<path class="st6" d="M125.6,56.6v0.8c0,0.2,0,0.3-0.1,0.4c-0.1,0.1-0.2,0.2-0.4,0.2c-0.1,0-0.3-0.1-0.3-0.2
	c-0.1-0.1-0.1-0.2-0.1-0.4v-2.7c0-0.4,0.2-0.7,0.5-0.7c0.2,0,0.3,0.1,0.4,0.2c0.1,0.1,0.1,0.3,0.1,0.5c0.1-0.2,0.2-0.4,0.4-0.5
	c0.1-0.1,0.3-0.2,0.5-0.2c0.2,0,0.4,0.1,0.6,0.2c0.2,0.1,0.3,0.2,0.3,0.4c0,0.1,0,0.2-0.1,0.3c-0.1,0.1-0.2,0.1-0.3,0.1
	c0,0-0.1,0-0.3-0.1c-0.1,0-0.3-0.1-0.4-0.1c-0.1,0-0.3,0-0.4,0.1c-0.1,0.1-0.2,0.2-0.2,0.3c-0.1,0.1-0.1,0.3-0.1,0.5
	C125.6,56.1,125.6,56.3,125.6,56.6"/>
<path class="st6" d="M133.5,56.3c0,0.3-0.1,0.6-0.2,0.9c-0.2,0.3-0.4,0.5-0.7,0.6c-0.3,0.1-0.7,0.2-1.1,0.2c-0.5,0-0.9-0.1-1.3-0.3
	c-0.2-0.1-0.4-0.3-0.6-0.6c-0.1-0.2-0.2-0.5-0.2-0.7c0-0.1,0-0.2,0.1-0.3s0.2-0.1,0.3-0.1c0.1,0,0.2,0,0.3,0.1
	c0.1,0.1,0.1,0.2,0.2,0.3c0.1,0.2,0.1,0.3,0.2,0.4c0.1,0.1,0.2,0.2,0.3,0.3c0.1,0.1,0.3,0.1,0.6,0.1c0.3,0,0.6-0.1,0.8-0.2
	c0.2-0.1,0.3-0.3,0.3-0.6c0-0.2-0.1-0.3-0.2-0.4c-0.1-0.1-0.2-0.2-0.4-0.3c-0.2-0.1-0.4-0.1-0.7-0.2c-0.4-0.1-0.7-0.2-1-0.3
	c-0.3-0.1-0.5-0.3-0.6-0.5c-0.1-0.2-0.2-0.5-0.2-0.8c0-0.3,0.1-0.5,0.2-0.8s0.4-0.4,0.7-0.5c0.3-0.1,0.7-0.2,1.1-0.2
	c0.3,0,0.6,0,0.8,0.1c0.2,0.1,0.4,0.2,0.6,0.3c0.2,0.1,0.3,0.3,0.3,0.4c0.1,0.1,0.1,0.3,0.1,0.4c0,0.1,0,0.2-0.1,0.3
	c-0.1,0.1-0.2,0.2-0.3,0.2c-0.1,0-0.2,0-0.3-0.1c-0.1-0.1-0.1-0.2-0.2-0.3c-0.1-0.2-0.2-0.4-0.3-0.5c-0.1-0.1-0.4-0.2-0.6-0.2
	c-0.3,0-0.5,0.1-0.7,0.2c-0.2,0.1-0.3,0.3-0.3,0.4c0,0.1,0,0.2,0.1,0.3c0.1,0.1,0.1,0.1,0.2,0.2c0.1,0.1,0.2,0.1,0.3,0.1
	c0.1,0,0.3,0.1,0.5,0.1c0.3,0.1,0.6,0.1,0.8,0.2c0.2,0.1,0.4,0.2,0.6,0.3c0.2,0.1,0.3,0.3,0.4,0.5S133.5,56.1,133.5,56.3"/>
<path class="st6" d="M136.7,57.5v-0.1c-0.1,0.1-0.2,0.3-0.4,0.4c-0.1,0.1-0.3,0.2-0.4,0.2c-0.2,0-0.3,0.1-0.5,0.1
	c-0.2,0-0.5,0-0.6-0.1c-0.2-0.1-0.3-0.2-0.4-0.4c-0.1-0.2-0.2-0.5-0.2-0.9v-1.9c0-0.2,0-0.3,0.1-0.4c0.1-0.1,0.2-0.1,0.4-0.1
	c0.1,0,0.3,0,0.4,0.1c0.1,0.1,0.1,0.2,0.1,0.4v1.6c0,0.2,0,0.4,0.1,0.6c0,0.2,0.1,0.3,0.2,0.4c0.1,0.1,0.2,0.1,0.4,0.1
	c0.2,0,0.3,0,0.5-0.1s0.3-0.2,0.3-0.4c0.1-0.1,0.1-0.4,0.1-0.9v-1.2c0-0.2,0-0.3,0.1-0.4s0.2-0.1,0.4-0.1c0.1,0,0.3,0,0.4,0.1
	c0.1,0.1,0.1,0.2,0.1,0.4v2.8c0,0.2,0,0.3-0.1,0.4c-0.1,0.1-0.2,0.1-0.3,0.1s-0.2,0-0.3-0.1C136.8,57.8,136.7,57.6,136.7,57.5"/>
<path class="st6" d="M142,56.8c0,0.1,0,0.3-0.1,0.4s-0.2,0.3-0.3,0.4c-0.1,0.1-0.3,0.2-0.6,0.3s-0.5,0.1-0.8,0.1
	c-0.6,0-1.1-0.2-1.4-0.5c-0.3-0.4-0.5-0.8-0.5-1.4c0-0.4,0.1-0.8,0.2-1.1c0.2-0.3,0.4-0.5,0.7-0.7c0.3-0.2,0.6-0.3,1.1-0.3
	c0.3,0,0.5,0,0.7,0.1c0.2,0.1,0.4,0.2,0.5,0.3c0.1,0.1,0.3,0.2,0.3,0.4c0.1,0.1,0.1,0.3,0.1,0.4c0,0.1,0,0.2-0.1,0.3
	c-0.1,0.1-0.2,0.1-0.3,0.1c-0.1,0-0.1,0-0.2-0.1c-0.1,0-0.1-0.1-0.2-0.2c-0.1-0.2-0.2-0.3-0.4-0.4c-0.1-0.1-0.3-0.1-0.5-0.1
	c-0.3,0-0.5,0.1-0.7,0.3c-0.2,0.2-0.3,0.5-0.3,0.9c0,0.2,0,0.4,0.1,0.5c0,0.2,0.1,0.3,0.2,0.4c0.1,0.1,0.2,0.2,0.3,0.2
	c0.1,0.1,0.3,0.1,0.4,0.1c0.2,0,0.4,0,0.5-0.1s0.3-0.2,0.4-0.4c0.1-0.1,0.1-0.2,0.2-0.3c0.1-0.1,0.2-0.1,0.3-0.1
	c0.1,0,0.2,0,0.3,0.1C142,56.6,142,56.7,142,56.8"/>
<path class="st6" d="M146.3,56.8c0,0.1,0,0.3-0.1,0.4c-0.1,0.1-0.2,0.3-0.3,0.4c-0.2,0.1-0.3,0.2-0.6,0.3c-0.2,0.1-0.5,0.1-0.8,0.1
	c-0.6,0-1.1-0.2-1.4-0.5c-0.3-0.4-0.5-0.8-0.5-1.4c0-0.4,0.1-0.8,0.2-1.1c0.2-0.3,0.4-0.5,0.7-0.7c0.3-0.2,0.6-0.3,1.1-0.3
	c0.3,0,0.5,0,0.7,0.1c0.2,0.1,0.4,0.2,0.5,0.3c0.1,0.1,0.3,0.2,0.3,0.4c0.1,0.1,0.1,0.3,0.1,0.4c0,0.1,0,0.2-0.1,0.3
	c-0.1,0.1-0.2,0.1-0.3,0.1c-0.1,0-0.1,0-0.2-0.1c-0.1,0-0.1-0.1-0.2-0.2c-0.1-0.2-0.2-0.3-0.4-0.4c-0.1-0.1-0.3-0.1-0.5-0.1
	c-0.3,0-0.5,0.1-0.7,0.3c-0.2,0.2-0.3,0.5-0.3,0.9c0,0.2,0,0.4,0.1,0.5c0,0.2,0.1,0.3,0.2,0.4c0.1,0.1,0.2,0.2,0.3,0.2
	c0.1,0.1,0.3,0.1,0.4,0.1c0.2,0,0.4,0,0.5-0.1s0.3-0.2,0.4-0.4c0.1-0.1,0.1-0.2,0.2-0.3c0.1-0.1,0.2-0.1,0.3-0.1
	c0.1,0,0.2,0,0.3,0.1C146.2,56.6,146.3,56.7,146.3,56.8"/>
<path class="st6" d="M147.8,55.7h1.8c0-0.3-0.1-0.6-0.3-0.8c-0.2-0.2-0.4-0.3-0.6-0.3c-0.2,0-0.4,0.1-0.6,0.3
	C147.9,55.1,147.8,55.4,147.8,55.7 M149.7,56.3h-1.9c0,0.2,0,0.4,0.1,0.6c0.1,0.2,0.2,0.3,0.3,0.4s0.3,0.1,0.5,0.1
	c0.1,0,0.2,0,0.3,0c0.1,0,0.2-0.1,0.3-0.1c0.1-0.1,0.2-0.1,0.3-0.2c0.1-0.1,0.2-0.2,0.3-0.3c0,0,0.1-0.1,0.2-0.1
	c0.1,0,0.2,0,0.2,0.1s0.1,0.1,0.1,0.2c0,0.1,0,0.2-0.1,0.3c-0.1,0.1-0.2,0.2-0.3,0.3c-0.1,0.1-0.3,0.2-0.5,0.3
	c-0.2,0.1-0.5,0.1-0.7,0.1c-0.6,0-1.1-0.2-1.5-0.5c-0.4-0.4-0.5-0.8-0.5-1.5c0-0.3,0-0.6,0.1-0.8c0.1-0.2,0.2-0.5,0.4-0.6
	c0.2-0.2,0.4-0.3,0.6-0.4c0.2-0.1,0.5-0.1,0.8-0.1c0.4,0,0.7,0.1,1,0.2c0.3,0.2,0.5,0.4,0.6,0.6c0.1,0.3,0.2,0.5,0.2,0.8
	c0,0.2-0.1,0.4-0.2,0.5C150.2,56.2,150,56.3,149.7,56.3"/>
<path class="st6" d="M154.4,56.7c0,0.3-0.1,0.5-0.2,0.7c-0.1,0.2-0.3,0.3-0.6,0.4c-0.3,0.1-0.6,0.1-0.9,0.1c-0.4,0-0.7-0.1-0.9-0.2
	c-0.3-0.1-0.4-0.2-0.6-0.4c-0.1-0.2-0.2-0.3-0.2-0.5c0-0.1,0-0.2,0.1-0.3c0.1-0.1,0.2-0.1,0.3-0.1c0.1,0,0.2,0,0.2,0.1
	c0.1,0,0.1,0.1,0.2,0.2c0.1,0.2,0.2,0.3,0.4,0.4c0.1,0.1,0.3,0.1,0.6,0.1c0.2,0,0.4,0,0.5-0.1c0.1-0.1,0.2-0.2,0.2-0.3
	c0-0.2-0.1-0.3-0.2-0.4c-0.1-0.1-0.3-0.2-0.6-0.2c-0.3-0.1-0.6-0.2-0.8-0.3c-0.2-0.1-0.4-0.2-0.5-0.4c-0.1-0.2-0.2-0.3-0.2-0.6
	c0-0.2,0.1-0.4,0.2-0.6c0.1-0.2,0.3-0.3,0.5-0.4c0.2-0.1,0.5-0.2,0.8-0.2c0.3,0,0.5,0,0.7,0.1c0.2,0.1,0.4,0.1,0.5,0.2
	c0.1,0.1,0.2,0.2,0.3,0.3c0.1,0.1,0.1,0.2,0.1,0.3c0,0.1,0,0.2-0.1,0.3c-0.1,0.1-0.2,0.1-0.3,0.1c-0.1,0-0.2,0-0.3-0.1
	c-0.1-0.1-0.2-0.1-0.2-0.3c-0.1-0.1-0.2-0.2-0.3-0.2c-0.1-0.1-0.2-0.1-0.4-0.1c-0.2,0-0.3,0-0.4,0.1c-0.1,0.1-0.2,0.2-0.2,0.3
	c0,0.1,0,0.2,0.1,0.3c0.1,0.1,0.2,0.1,0.3,0.2c0.1,0,0.3,0.1,0.6,0.2c0.3,0.1,0.6,0.2,0.7,0.3c0.2,0.1,0.3,0.2,0.4,0.4
	C154.3,56.4,154.4,56.6,154.4,56.7"/>
<path class="st6" d="M158.3,56.7c0,0.3-0.1,0.5-0.2,0.7c-0.1,0.2-0.3,0.3-0.6,0.4c-0.3,0.1-0.6,0.1-0.9,0.1c-0.4,0-0.7-0.1-0.9-0.2
	c-0.3-0.1-0.4-0.2-0.6-0.4c-0.1-0.2-0.2-0.3-0.2-0.5c0-0.1,0-0.2,0.1-0.3c0.1-0.1,0.2-0.1,0.3-0.1c0.1,0,0.2,0,0.2,0.1
	c0.1,0,0.1,0.1,0.2,0.2c0.1,0.2,0.2,0.3,0.4,0.4c0.1,0.1,0.3,0.1,0.6,0.1c0.2,0,0.4,0,0.5-0.1c0.1-0.1,0.2-0.2,0.2-0.3
	c0-0.2-0.1-0.3-0.2-0.4c-0.1-0.1-0.3-0.2-0.6-0.2c-0.3-0.1-0.6-0.2-0.8-0.3c-0.2-0.1-0.4-0.2-0.5-0.4c-0.1-0.2-0.2-0.3-0.2-0.6
	c0-0.2,0.1-0.4,0.2-0.6c0.1-0.2,0.3-0.3,0.5-0.4c0.2-0.1,0.5-0.2,0.8-0.2c0.3,0,0.5,0,0.7,0.1c0.2,0.1,0.4,0.1,0.5,0.2
	c0.1,0.1,0.2,0.2,0.3,0.3c0.1,0.1,0.1,0.2,0.1,0.3c0,0.1,0,0.2-0.1,0.3c-0.1,0.1-0.2,0.1-0.3,0.1c-0.1,0-0.2,0-0.3-0.1
	c-0.1-0.1-0.2-0.1-0.2-0.3c-0.1-0.1-0.2-0.2-0.3-0.2c-0.1-0.1-0.2-0.1-0.4-0.1c-0.2,0-0.3,0-0.4,0.1c-0.1,0.1-0.2,0.2-0.2,0.3
	c0,0.1,0,0.2,0.1,0.3c0.1,0.1,0.2,0.1,0.3,0.2c0.1,0,0.3,0.1,0.6,0.2c0.3,0.1,0.6,0.2,0.7,0.3c0.2,0.1,0.3,0.2,0.4,0.4
	C158.2,56.4,158.3,56.6,158.3,56.7"/>
<path class="st6" d="M161.9,56.4h-1.1c-0.2,0-0.3,0-0.4-0.1c-0.1-0.1-0.1-0.2-0.1-0.3c0-0.1,0-0.2,0.1-0.3c0.1-0.1,0.2-0.1,0.4-0.1
	h1.1c0.2,0,0.3,0,0.4,0.1c0.1,0.1,0.1,0.2,0.1,0.3c0,0.1,0,0.2-0.1,0.3C162.3,56.4,162.1,56.4,161.9,56.4"/>
<path class="st6" d="M168.6,55.3c0-0.4-0.1-0.7-0.2-1c-0.1-0.3-0.3-0.5-0.5-0.6c-0.2-0.1-0.5-0.2-0.8-0.2c-0.2,0-0.4,0-0.6,0.1
	c-0.2,0.1-0.3,0.2-0.5,0.3s-0.2,0.3-0.3,0.6c-0.1,0.2-0.1,0.5-0.1,0.8c0,0.3,0,0.6,0.1,0.8c0.1,0.2,0.2,0.4,0.3,0.6
	c0.1,0.2,0.3,0.3,0.5,0.4c0.2,0.1,0.4,0.1,0.6,0.1c0.3,0,0.5-0.1,0.8-0.2c0.2-0.1,0.4-0.3,0.5-0.6C168.5,56,168.6,55.7,168.6,55.3
	 M167.1,52.6c0.5,0,1,0.1,1.4,0.3c0.4,0.2,0.7,0.5,0.9,0.9c0.2,0.4,0.3,0.9,0.3,1.4c0,0.4-0.1,0.8-0.2,1.1c-0.1,0.3-0.3,0.6-0.5,0.9
	c-0.2,0.2-0.5,0.4-0.8,0.6c-0.3,0.1-0.7,0.2-1.1,0.2c-0.4,0-0.8-0.1-1.1-0.2c-0.3-0.1-0.6-0.3-0.8-0.6c-0.2-0.2-0.4-0.5-0.5-0.9
	c-0.1-0.3-0.2-0.7-0.2-1.1c0-0.4,0.1-0.8,0.2-1.1c0.1-0.3,0.3-0.6,0.5-0.9c0.2-0.2,0.5-0.4,0.8-0.5
	C166.3,52.6,166.7,52.6,167.1,52.6"/>
<path class="st6" d="M172.9,57.5v-0.1c-0.1,0.1-0.2,0.3-0.4,0.4c-0.1,0.1-0.3,0.2-0.4,0.2c-0.2,0-0.3,0.1-0.5,0.1
	c-0.2,0-0.4,0-0.6-0.1c-0.2-0.1-0.3-0.2-0.4-0.4c-0.1-0.2-0.2-0.5-0.2-0.9v-1.9c0-0.2,0-0.3,0.1-0.4c0.1-0.1,0.2-0.1,0.4-0.1
	c0.1,0,0.3,0,0.4,0.1c0.1,0.1,0.1,0.2,0.1,0.4v1.6c0,0.2,0,0.4,0.1,0.6c0,0.2,0.1,0.3,0.2,0.4c0.1,0.1,0.2,0.1,0.4,0.1
	c0.2,0,0.3,0,0.5-0.1s0.3-0.2,0.3-0.4c0.1-0.1,0.1-0.4,0.1-0.9v-1.2c0-0.2,0-0.3,0.1-0.4s0.2-0.1,0.4-0.1c0.1,0,0.3,0,0.4,0.1
	c0.1,0.1,0.1,0.2,0.1,0.4v2.8c0,0.2,0,0.3-0.1,0.4c-0.1,0.1-0.2,0.1-0.3,0.1c-0.1,0-0.2,0-0.3-0.1C173,57.8,172.9,57.6,172.9,57.5"
	/>
<path class="st6" d="M175.7,56.6v0.8c0,0.2,0,0.3-0.1,0.4c-0.1,0.1-0.2,0.2-0.4,0.2c-0.1,0-0.3-0.1-0.3-0.2
	c-0.1-0.1-0.1-0.2-0.1-0.4v-2.7c0-0.4,0.2-0.7,0.5-0.7c0.2,0,0.3,0.1,0.4,0.2c0.1,0.1,0.1,0.3,0.1,0.5c0.1-0.2,0.2-0.4,0.4-0.5
	c0.1-0.1,0.3-0.2,0.5-0.2c0.2,0,0.4,0.1,0.6,0.2c0.2,0.1,0.3,0.2,0.3,0.4c0,0.1,0,0.2-0.1,0.3c-0.1,0.1-0.2,0.1-0.3,0.1
	c0,0-0.1,0-0.3-0.1c-0.1,0-0.3-0.1-0.4-0.1c-0.1,0-0.3,0-0.4,0.1c-0.1,0.1-0.2,0.2-0.2,0.3c-0.1,0.1-0.1,0.3-0.1,0.5
	C175.7,56.1,175.7,56.3,175.7,56.6"/>
<path class="st6" d="M182.7,53.5h-2.1v1.3h1.8c0.2,0,0.3,0,0.4,0.1s0.1,0.2,0.1,0.3c0,0.1,0,0.2-0.1,0.3c-0.1,0.1-0.2,0.1-0.4,0.1
	h-1.8v1.7c0,0.2,0,0.4-0.1,0.5c-0.1,0.1-0.2,0.2-0.4,0.2c-0.2,0-0.3-0.1-0.4-0.2c-0.1-0.1-0.1-0.3-0.1-0.5v-4.1c0-0.2,0-0.3,0.1-0.4
	c0-0.1,0.1-0.2,0.2-0.2c0.1,0,0.2-0.1,0.4-0.1h2.5c0.2,0,0.3,0,0.4,0.1c0.1,0.1,0.1,0.2,0.1,0.3c0,0.1,0,0.2-0.1,0.3
	C183,53.4,182.9,53.5,182.7,53.5"/>
<path class="st6" d="M186.4,57.5v-0.1c-0.1,0.1-0.2,0.3-0.4,0.4c-0.1,0.1-0.3,0.2-0.4,0.2c-0.2,0-0.3,0.1-0.5,0.1
	c-0.2,0-0.5,0-0.6-0.1c-0.2-0.1-0.3-0.2-0.4-0.4c-0.1-0.2-0.2-0.5-0.2-0.9v-1.9c0-0.2,0-0.3,0.1-0.4c0.1-0.1,0.2-0.1,0.4-0.1
	c0.1,0,0.3,0,0.4,0.1c0.1,0.1,0.1,0.2,0.1,0.4v1.6c0,0.2,0,0.4,0.1,0.6c0,0.2,0.1,0.3,0.2,0.4c0.1,0.1,0.2,0.1,0.4,0.1
	c0.2,0,0.3,0,0.5-0.1s0.3-0.2,0.3-0.4c0.1-0.1,0.1-0.4,0.1-0.9v-1.2c0-0.2,0-0.3,0.1-0.4s0.2-0.1,0.4-0.1c0.1,0,0.3,0,0.4,0.1
	c0.1,0.1,0.1,0.2,0.1,0.4v2.8c0,0.2,0,0.3-0.1,0.4c-0.1,0.1-0.2,0.1-0.3,0.1c-0.1,0-0.2,0-0.3-0.1C186.4,57.8,186.4,57.6,186.4,57.5
	"/>
<path class="st6" d="M188.2,54.1h0.1v-0.6c0-0.2,0-0.3,0-0.4c0-0.1,0-0.2,0.1-0.2c0-0.1,0.1-0.1,0.2-0.2c0.1,0,0.2-0.1,0.2-0.1
	c0.1,0,0.2,0,0.3,0.1c0.1,0.1,0.1,0.1,0.1,0.2c0,0.1,0,0.2,0,0.4v0.7h0.4c0.1,0,0.2,0,0.3,0.1c0.1,0.1,0.1,0.2,0.1,0.3
	c0,0.1-0.1,0.2-0.2,0.3c-0.1,0.1-0.3,0.1-0.4,0.1h-0.2v1.8c0,0.2,0,0.3,0,0.4c0,0.1,0,0.1,0.1,0.2c0,0.1,0.1,0.1,0.2,0.1
	c0.1,0,0.1,0,0.2,0c0.1,0,0.2,0,0.2,0c0.1,0,0.2,0,0.2,0.1c0.1,0.1,0.1,0.1,0.1,0.2c0,0.2-0.1,0.3-0.3,0.4c-0.2,0.1-0.4,0.1-0.7,0.1
	c-0.3,0-0.5-0.1-0.7-0.2c-0.2-0.1-0.3-0.2-0.3-0.4c-0.1-0.2-0.1-0.4-0.1-0.7v-1.9h-0.1c-0.1,0-0.2,0-0.3-0.1
	c-0.1-0.1-0.1-0.2-0.1-0.3c0-0.1,0-0.2,0.1-0.3C187.9,54.1,188,54.1,188.2,54.1"/>
<path class="st6" d="M193.1,57.5v-0.1c-0.1,0.1-0.2,0.3-0.4,0.4c-0.1,0.1-0.3,0.2-0.4,0.2c-0.2,0-0.3,0.1-0.5,0.1
	c-0.2,0-0.4,0-0.6-0.1c-0.2-0.1-0.3-0.2-0.4-0.4c-0.1-0.2-0.2-0.5-0.2-0.9v-1.9c0-0.2,0-0.3,0.1-0.4c0.1-0.1,0.2-0.1,0.4-0.1
	c0.1,0,0.3,0,0.4,0.1c0.1,0.1,0.1,0.2,0.1,0.4v1.6c0,0.2,0,0.4,0.1,0.6c0,0.2,0.1,0.3,0.2,0.4c0.1,0.1,0.2,0.1,0.4,0.1
	c0.2,0,0.3,0,0.5-0.1s0.3-0.2,0.3-0.4c0.1-0.1,0.1-0.4,0.1-0.9v-1.2c0-0.2,0-0.3,0.1-0.4s0.2-0.1,0.4-0.1c0.1,0,0.3,0,0.4,0.1
	c0.1,0.1,0.1,0.2,0.1,0.4v2.8c0,0.2,0,0.3-0.1,0.4c-0.1,0.1-0.2,0.1-0.3,0.1c-0.1,0-0.2,0-0.3-0.1C193.2,57.8,193.1,57.6,193.1,57.5
	"/>
<path class="st6" d="M195.9,56.6v0.8c0,0.2,0,0.3-0.1,0.4c-0.1,0.1-0.2,0.2-0.4,0.2c-0.1,0-0.3-0.1-0.3-0.2
	c-0.1-0.1-0.1-0.2-0.1-0.4v-2.7c0-0.4,0.2-0.7,0.5-0.7c0.2,0,0.3,0.1,0.4,0.2c0.1,0.1,0.1,0.3,0.1,0.5c0.1-0.2,0.2-0.4,0.4-0.5
	c0.1-0.1,0.3-0.2,0.5-0.2c0.2,0,0.4,0.1,0.6,0.2c0.2,0.1,0.3,0.2,0.3,0.4c0,0.1,0,0.2-0.1,0.3c-0.1,0.1-0.2,0.1-0.3,0.1
	c0,0-0.1,0-0.3-0.1c-0.1,0-0.3-0.1-0.4-0.1c-0.1,0-0.3,0-0.4,0.1c-0.1,0.1-0.2,0.2-0.2,0.3c-0.1,0.1-0.1,0.3-0.1,0.5
	C195.9,56.1,195.9,56.3,195.9,56.6"/>
<path class="st6" d="M198.6,55.7h1.8c0-0.3-0.1-0.6-0.3-0.8c-0.2-0.2-0.4-0.3-0.6-0.3c-0.2,0-0.4,0.1-0.6,0.3
	C198.8,55.1,198.7,55.4,198.6,55.7 M200.6,56.3h-1.9c0,0.2,0,0.4,0.1,0.6c0.1,0.2,0.2,0.3,0.3,0.4s0.3,0.1,0.5,0.1
	c0.1,0,0.2,0,0.3,0c0.1,0,0.2-0.1,0.3-0.1c0.1-0.1,0.2-0.1,0.3-0.2c0.1-0.1,0.2-0.2,0.3-0.3c0,0,0.1-0.1,0.2-0.1
	c0.1,0,0.2,0,0.2,0.1s0.1,0.1,0.1,0.2c0,0.1,0,0.2-0.1,0.3c-0.1,0.1-0.2,0.2-0.3,0.3c-0.1,0.1-0.3,0.2-0.5,0.3
	c-0.2,0.1-0.5,0.1-0.7,0.1c-0.6,0-1.1-0.2-1.5-0.5c-0.4-0.4-0.5-0.8-0.5-1.5c0-0.3,0-0.6,0.1-0.8c0.1-0.2,0.2-0.5,0.4-0.6
	c0.2-0.2,0.4-0.3,0.6-0.4c0.2-0.1,0.5-0.1,0.8-0.1c0.4,0,0.7,0.1,1,0.2c0.3,0.2,0.5,0.4,0.6,0.6c0.1,0.3,0.2,0.5,0.2,0.8
	c0,0.2-0.1,0.4-0.2,0.5C201,56.2,200.8,56.3,200.6,56.3"/>
<path class="st6" d="M117.9,44.5c0,0.1,0,0.3-0.1,0.4c-0.1,0.1-0.2,0.2-0.4,0.3c-0.2,0.1-0.4,0.1-0.8,0.2c-0.3,0-0.7,0.1-1.2,0.1
	c-0.5,0-0.9,0-1.2-0.1c-0.3,0-0.6-0.1-0.8-0.2c-0.2-0.1-0.3-0.2-0.4-0.3c-0.1-0.1-0.1-0.2-0.1-0.4v-21h0l-7.5,21
	c-0.1,0.2-0.1,0.3-0.3,0.4c-0.1,0.1-0.3,0.2-0.5,0.3c-0.2,0.1-0.5,0.1-0.8,0.1s-0.7,0-1.2,0c-0.5,0-0.8,0-1.2,0s-0.6-0.1-0.8-0.2
	c-0.2-0.1-0.4-0.2-0.5-0.3c-0.1-0.1-0.2-0.2-0.2-0.4l-7.2-21h0v21c0,0.1,0,0.3-0.1,0.4c-0.1,0.1-0.2,0.2-0.4,0.3
	c-0.2,0.1-0.5,0.1-0.8,0.2c-0.3,0-0.7,0.1-1.2,0.1c-0.5,0-0.9,0-1.2-0.1c-0.3,0-0.6-0.1-0.8-0.2c-0.2-0.1-0.3-0.2-0.4-0.3
	c-0.1-0.1-0.1-0.2-0.1-0.4v-23c0-0.7,0.2-1.2,0.5-1.6c0.4-0.4,0.8-0.5,1.4-0.5h3.4c0.6,0,1.1,0,1.6,0.1c0.4,0.1,0.8,0.3,1.1,0.5
	c0.3,0.2,0.6,0.5,0.8,0.9c0.2,0.4,0.4,0.8,0.6,1.4l5.6,15.4h0.1l5.8-15.3c0.2-0.6,0.4-1,0.6-1.4c0.2-0.4,0.4-0.7,0.7-0.9
	c0.3-0.2,0.6-0.4,1-0.5c0.4-0.1,0.8-0.1,1.3-0.1h3.5c0.4,0,0.7,0,0.9,0.1c0.3,0.1,0.5,0.2,0.6,0.4c0.2,0.2,0.3,0.4,0.4,0.7
	c0.1,0.3,0.1,0.6,0.1,0.9V44.5z"/>
<path class="st6" d="M138.1,43.1c0,0.4,0,0.7-0.1,1c0,0.3-0.1,0.5-0.2,0.6c-0.1,0.2-0.1,0.3-0.2,0.3c-0.1,0.1-0.2,0.1-0.3,0.1h-13
	c-0.4,0-0.8-0.1-1.1-0.4c-0.3-0.3-0.4-0.7-0.4-1.3V21c0-0.6,0.2-1,0.4-1.3c0.3-0.3,0.7-0.4,1.1-0.4h12.9c0.1,0,0.2,0,0.3,0.1
	c0.1,0.1,0.2,0.2,0.2,0.3c0.1,0.2,0.1,0.4,0.1,0.6c0,0.3,0.1,0.6,0.1,1c0,0.4,0,0.7-0.1,0.9c0,0.3-0.1,0.5-0.1,0.6
	c-0.1,0.2-0.1,0.3-0.2,0.3c-0.1,0.1-0.2,0.1-0.3,0.1H128v6.3h7.8c0.1,0,0.2,0,0.3,0.1c0.1,0.1,0.2,0.2,0.3,0.3
	c0.1,0.2,0.1,0.4,0.1,0.6s0.1,0.6,0.1,0.9c0,0.4,0,0.7-0.1,1c0,0.3-0.1,0.5-0.1,0.6c-0.1,0.2-0.1,0.3-0.3,0.3
	c-0.1,0.1-0.2,0.1-0.3,0.1H128v7.3h9.3c0.1,0,0.2,0,0.3,0.1c0.1,0.1,0.2,0.2,0.2,0.3c0.1,0.2,0.1,0.4,0.2,0.6
	C138,42.4,138.1,42.8,138.1,43.1"/>
<path class="st6" d="M154.1,27.6c0-0.9-0.2-1.6-0.5-2.2c-0.3-0.6-0.7-1-1.2-1.3c-0.5-0.3-1-0.5-1.5-0.5c-0.5-0.1-1-0.1-1.6-0.1h-2.2
	v8.8h2.4c0.8,0,1.5-0.1,2.1-0.3c0.6-0.2,1-0.5,1.4-0.9c0.4-0.4,0.6-0.9,0.8-1.5C154,28.9,154.1,28.3,154.1,27.6 M159.6,27.2
	c0,1.4-0.2,2.7-0.7,3.8c-0.5,1.1-1.1,2.1-2,2.8c-0.9,0.8-1.9,1.3-3.2,1.7c-1.3,0.4-2.7,0.6-4.4,0.6h-2.2v8.2c0,0.1,0,0.3-0.1,0.4
	c-0.1,0.1-0.2,0.2-0.4,0.3c-0.2,0.1-0.5,0.1-0.8,0.2s-0.8,0.1-1.3,0.1c-0.5,0-0.9,0-1.3-0.1s-0.6-0.1-0.8-0.2
	c-0.2-0.1-0.3-0.2-0.4-0.3c-0.1-0.1-0.1-0.2-0.1-0.4V21.3c0-0.6,0.2-1.1,0.5-1.4c0.3-0.3,0.8-0.5,1.3-0.5h6.1c0.6,0,1.2,0,1.7,0.1
	c0.6,0,1.2,0.1,2,0.3c0.8,0.2,1.6,0.4,2.3,0.8c0.8,0.4,1.5,0.9,2,1.6c0.6,0.6,1,1.4,1.3,2.2C159.5,25.2,159.6,26.2,159.6,27.2"/>
<path class="st6" d="M169.5,24.3L169.5,24.3l-3.7,11h7.3L169.5,24.3z M181.3,43.2c0.2,0.5,0.3,0.9,0.3,1.1c0,0.3,0,0.5-0.2,0.6
	c-0.1,0.1-0.4,0.2-0.8,0.3c-0.4,0-0.9,0-1.5,0c-0.7,0-1.2,0-1.6,0s-0.7-0.1-0.9-0.1c-0.2-0.1-0.3-0.1-0.4-0.2
	c-0.1-0.1-0.1-0.2-0.2-0.4l-1.7-5.2h-9.7l-1.6,5c-0.1,0.2-0.1,0.3-0.2,0.5c-0.1,0.1-0.2,0.2-0.4,0.3c-0.2,0.1-0.5,0.1-0.8,0.1
	c-0.4,0-0.8,0-1.4,0c-0.6,0-1.1,0-1.4-0.1c-0.3,0-0.6-0.1-0.7-0.3c-0.1-0.2-0.2-0.4-0.1-0.6c0-0.3,0.1-0.7,0.3-1.1l8-22.9
	c0.1-0.2,0.2-0.4,0.3-0.5c0.1-0.1,0.3-0.2,0.5-0.3c0.2-0.1,0.6-0.1,1-0.1c0.4,0,1,0,1.6,0c0.8,0,1.4,0,1.9,0s0.8,0.1,1.1,0.1
	c0.3,0.1,0.4,0.2,0.6,0.3c0.1,0.1,0.2,0.3,0.3,0.6L181.3,43.2z"/>
<path class="st6" d="M201.6,41.3c0,0.3,0,0.6,0,0.8c0,0.2,0,0.4-0.1,0.6c0,0.2-0.1,0.3-0.2,0.4c-0.1,0.1-0.2,0.3-0.3,0.4
	c-0.1,0.2-0.4,0.3-0.8,0.6c-0.4,0.2-0.9,0.5-1.5,0.7c-0.6,0.2-1.3,0.4-2.1,0.5s-1.6,0.2-2.5,0.2c-1.8,0-3.4-0.3-4.8-0.8
	c-1.4-0.5-2.6-1.4-3.6-2.4c-1-1.1-1.8-2.4-2.3-4.1c-0.5-1.6-0.8-3.5-0.8-5.7c0-2.2,0.3-4.1,0.9-5.8c0.6-1.7,1.4-3.1,2.5-4.3
	c1.1-1.2,2.3-2,3.8-2.6s3.1-0.9,4.9-0.9c0.7,0,1.4,0.1,2.1,0.2c0.7,0.1,1.3,0.3,1.8,0.5c0.6,0.2,1.1,0.4,1.5,0.7
	c0.5,0.3,0.8,0.5,0.9,0.6c0.2,0.2,0.3,0.3,0.4,0.4c0.1,0.1,0.1,0.3,0.2,0.5c0,0.2,0.1,0.4,0.1,0.7c0,0.3,0,0.6,0,0.9
	c0,0.4,0,0.7,0,1c0,0.3-0.1,0.5-0.1,0.7c-0.1,0.2-0.1,0.3-0.2,0.4c-0.1,0.1-0.2,0.1-0.3,0.1c-0.2,0-0.5-0.1-0.8-0.3
	c-0.3-0.2-0.7-0.5-1.2-0.8c-0.5-0.3-1.1-0.5-1.7-0.8c-0.7-0.2-1.5-0.3-2.4-0.3c-1,0-1.9,0.2-2.7,0.6c-0.8,0.4-1.5,1-2.1,1.8
	c-0.6,0.8-1,1.7-1.3,2.8c-0.3,1.1-0.4,2.3-0.4,3.7c0,1.5,0.2,2.8,0.5,3.9c0.3,1.1,0.8,2,1.3,2.7c0.6,0.7,1.3,1.3,2.1,1.6
	c0.8,0.4,1.7,0.5,2.8,0.5c0.9,0,1.7-0.1,2.4-0.3c0.7-0.2,1.3-0.5,1.7-0.7s0.9-0.5,1.2-0.7c0.3-0.2,0.6-0.3,0.7-0.3
	c0.1,0,0.2,0,0.3,0.1c0.1,0.1,0.1,0.2,0.2,0.3c0.1,0.2,0.1,0.4,0.1,0.7C201.5,40.4,201.6,40.8,201.6,41.3"/>
<rect y="0" class="st7" width="209.1" height="78.4"/>
</svg>
